# xmcd
#
# Track frame offsets: 
#        150
#        10919
#        19596
#        27754
#        36931
#        45183
#        53754
#        63996
#        72685
#        80958
#        92971
#        101399
#        110270
#        119129
#        129724
#        138180
#        148499
#        157168
#        166945
#        178676
#        187250
#        197127
#        209280
#        216304
#        227687
#
# Disc length: 3154 seconds
#
# Revision: 0
# Processed by: cddbd v1.5.2PL0 Copyright (c) Steve Scherf et al.
# Submitted via: ExactAudioCopy v0.99pb3
#
DISCID=790c5019
DTITLE=Various Artist - More Golden Fiddle - Volume One
DYEAR=1900
DGENRE=Country
TTITLE0=01 - Smiley Bates - Buffalo Gal
TTITLE1=02 - Bill Sawyer - Rubber Dolly
TTITLE2=03 - Graham Townsend - Rollaway Hornpipe
TTITLE3=04 - Brent Williams - Sugerfoot Rag
TTITLE4=05 - Chuck Joyce - Year End Two Step
TTITLE5=06 - Bob Ranger - White Water Jig
TTITLE6=07 - Bunty Petrie - Ragtime Annie
TTITLE7=08 - Suzanne Tellier - Jolly Breakdown
TTITLE8=09 - Carl Elliott - Blind Man's Reel
TTITLE9=10 - Dennis Harrington - Belfast Jig
TTITLE10=11 - Webb Acheson - Irish Washerwoman
TTITLE11=12 - Gerry Malley - Mississippi Sawyer
TTITLE12=13 - Sinclair Cheechoo - Midnight Breakdown
TTITLE13=14 - Brent Williams - Turkey in the Straw
TTITLE14=15 - Graham Townsend - Willowtree Hornpipe
TTITLE15=16 - John Wilmot - Inverness Reel
TTITLE16=17 - Chuck Joyce - Putnam Breakdown
TTITLE17=18 - Eleanor Townsend - Spider Bit the Baby
TTITLE18=19 - Dennis Harrington - Diefenbaker Polka
TTITLE19=20 - Webb Acheson - Beaver Lake Jig
TTITLE20=21 - Brian Barron - Happy Little Indian
TTITLE21=22 - Smiley Bates - Maple Sugar
TTITLE22=23 - Erwin Deighan - Little Burnt Potato
TTITLE23=24 - Sinclair Cheechoo - Big Dipper Swing
TTITLE24=25 - Carl Elliott - Allie's Hornpipe
EXTD=
EXTT0=
EXTT1=
EXTT2=
EXTT3=
EXTT4=
EXTT5=
EXTT6=
EXTT7=
EXTT8=
EXTT9=
EXTT10=
EXTT11=
EXTT12=
EXTT13=
EXTT14=
EXTT15=
EXTT16=
EXTT17=
EXTT18=
EXTT19=
EXTT20=
EXTT21=
EXTT22=
EXTT23=
EXTT24=
PLAYORDER=
